<svg xmlns="http://www.w3.org/2000/svg" width="14" height="14" viewBox="0 0 14 14">
  <path id="icons8-color-mode" d="M9,2a7,7,0,1,0,7,7A7.011,7.011,0,0,0,9,2ZM8.3,3.448V5.571a3.468,3.468,0,0,0-1.221.518L5.566,4.576A5.579,5.579,0,0,1,8.3,3.448Zm1.4,0a5.58,5.58,0,0,1,2.734,1.128L10.921,6.089A3.468,3.468,0,0,0,9.7,5.571ZM4.577,5.567,6.091,7.08A3.467,3.467,0,0,0,5.577,8.3H3.448A5.555,5.555,0,0,1,4.577,5.567Zm8.846,0A5.556,5.556,0,0,1,14.552,8.3H12.423a3.467,3.467,0,0,0-.514-1.22ZM9,6.9A2.1,2.1,0,1,1,6.9,9,2.089,2.089,0,0,1,9,6.9ZM3.448,9.7H5.571a3.483,3.483,0,0,0,.514,1.225L4.577,12.433A5.563,5.563,0,0,1,3.448,9.7Zm8.981,0h2.123a5.563,5.563,0,0,1-1.129,2.733l-1.508-1.508A3.484,3.484,0,0,0,12.429,9.7ZM7.075,11.915a3.484,3.484,0,0,0,1.225.514v2.123a5.563,5.563,0,0,1-2.733-1.129Zm3.85,0,1.508,1.508A5.563,5.563,0,0,1,9.7,14.552V12.429A3.484,3.484,0,0,0,10.925,11.915Z" transform="translate(-2 -2)" fill="#18283e"/>
</svg>
