<svg xmlns="http://www.w3.org/2000/svg" width="16" height="14.768" viewBox="0 0 16 14.768">
  <path id="icons8-insect" d="M6.942,2.9a.608.608,0,0,0-.522.266.66.66,0,0,0-.075.6,4.144,4.144,0,0,0,1.494,1.8,1.989,1.989,0,0,0-1.037.88,4.6,4.6,0,0,1-.586-.23,2.546,2.546,0,0,1-.548-.352c-.1-.086-.095-.09-.095-.09a.608.608,0,0,0-.5-.26H3.846a.64.64,0,0,0,0,1.279h.982c.025.024.019.025.048.05a3.775,3.775,0,0,0,.81.527,8.22,8.22,0,0,0,3.658.7.593.593,0,0,0,.126-.012c.178,0,.342.012.54.012s.348-.007.52-.011a.593.593,0,0,0,.124.011,8.22,8.22,0,0,0,3.658-.7,3.775,3.775,0,0,0,.81-.527c.029-.025.023-.026.048-.05h.982a.64.64,0,0,0,0-1.279H14.922a.608.608,0,0,0-.5.26s0,0-.095.09a2.546,2.546,0,0,1-.548.352,4.59,4.59,0,0,1-.6.234,2.007,2.007,0,0,0-1.022-.887,4.145,4.145,0,0,0,1.49-1.8.661.661,0,0,0-.063-.581A.61.61,0,0,0,13.1,2.9a.617.617,0,0,0-.6.43,2.3,2.3,0,0,1-1.34,1.343,1.769,1.769,0,0,0-2.317,0A2.3,2.3,0,0,1,7.5,3.334a.619.619,0,0,0-.559-.43Zm-2.5,5.177a.6.6,0,0,0-.172.032L2.42,8.752a.646.646,0,0,0-.389.809.611.611,0,0,0,.779.4L4.443,9.4c.059.03.233.11.382.179a5.515,5.515,0,0,0-.364,1.971,6.845,6.845,0,0,0,.489,2.575L4.56,15.343,2.889,16.5a.655.655,0,0,0-.171.887.6.6,0,0,0,.853.177l1.846-1.279a.637.637,0,0,0,.243-.33l.115-.361a4.838,4.838,0,0,0,2.993,2.077.6.6,0,0,0,.615-.639V11.278a.616.616,0,1,1,1.231,0v5.755a.6.6,0,0,0,.615.639A4.838,4.838,0,0,0,14.222,15.6l.115.361a.637.637,0,0,0,.243.33l1.846,1.279a.6.6,0,0,0,.853-.177.655.655,0,0,0-.171-.887l-1.671-1.158-.391-1.218a6.845,6.845,0,0,0,.489-2.575,5.515,5.515,0,0,0-.364-1.971c.149-.069.323-.148.382-.179l1.633.566a.611.611,0,0,0,.779-.4.646.646,0,0,0-.389-.809l-1.846-.639a.6.6,0,0,0-.47.035,13.124,13.124,0,0,1-3.716,1.145c-.476.038-.983.066-1.547.066s-1.071-.028-1.547-.066A13.125,13.125,0,0,1,4.736,8.148.6.6,0,0,0,4.438,8.081Z" transform="translate(-1.999 -2.904)" fill="#18283e"/>
</svg>
