<svg xmlns="http://www.w3.org/2000/svg" width="14" height="17.5" viewBox="0 0 14 17.5">
  <path id="icons8-padlock" d="M15,4a3.51,3.51,0,0,0-3.5,3.5V9.25H9.969A1.979,1.979,0,0,0,8,11.219v8.313A1.979,1.979,0,0,0,9.969,21.5H20.031A1.979,1.979,0,0,0,22,19.531V11.219A1.979,1.979,0,0,0,20.031,9.25H12.813V7.5a2.186,2.186,0,0,1,4.366-.169.656.656,0,1,0,1.309-.1A3.507,3.507,0,0,0,15,4ZM9.969,10.563h2.08a.656.656,0,0,0,.213,0h7.77a.646.646,0,0,1,.656.656v8.313a.646.646,0,0,1-.656.656H9.969a.646.646,0,0,1-.656-.656V11.219A.646.646,0,0,1,9.969,10.563ZM15,14.063a1.313,1.313,0,1,0,1.312,1.312A1.312,1.312,0,0,0,15,14.063Z" transform="translate(-8 -4)" fill="#18283e"/>
</svg>
